<?xml version="1.0" standalone="no"?>
<!DOCTYPE svg PUBLIC "-//W3C//DTD SVG 20010904//EN"
 "http://www.w3.org/TR/2001/REC-SVG-20010904/DTD/svg10.dtd">
<svg version="1.0" xmlns="http://www.w3.org/2000/svg"
 width="700.000000pt" height="700.000000pt" viewBox="0 0 700.000000 700.000000"
 preserveAspectRatio="xMidYMid meet">
<metadata>
Created by potrace 1.11, written by Peter Selinger 2001-2013
</metadata>
<g transform="translate(0.000000,700.000000) scale(0.100000,-0.100000)"
fill="#000000" stroke="none">
<path d="M0 3500 l0 -3500 315 0 315 0 2 1592 3 1593 1430 0 1430 0 3 -1593 2
-1592 1750 0 1750 0 0 630 0 630 -327 0 c-1535 2 -2027 0 -2033 -7 -4 -4 -42
-51 -84 -103 -43 -52 -93 -113 -111 -135 -19 -22 -89 -107 -156 -190 -67 -82
-130 -159 -140 -170 -19 -19 -19 46 -19 2848 l0 2867 1435 0 1435 0 0 315 0
315 -1750 0 -1750 0 0 -1593 0 -1592 -1427 1 c-786 1 -1431 2 -1435 3 -5 0 -8
717 -8 1591 l0 1590 -315 0 -315 0 0 -3500z"/>
</g>
</svg>
