<svg width="28" height="28" viewBox="0 0 28 28" fill="none" xmlns="http://www.w3.org/2000/svg">
<title>Switch to dark mode</title>
<path fill-rule="evenodd" clip-rule="evenodd" d="M4.76115 10.1731C4.00734 11.9929 2.57458 13.3259 0.877991 13.9999C2.57457 14.674 4.00733 16.0069 4.76113 17.8267C5.51495 19.6466 5.44434 21.6022 4.72129 23.2785C6.3976 22.5555 8.35325 22.4849 10.1731 23.2387C11.9929 23.9925 13.3259 25.4253 13.9999 27.1219C14.674 25.4253 16.0069 23.9925 17.8268 23.2387C19.6466 22.4849 21.6023 22.5555 23.2786 23.2785C22.5555 21.6022 22.4849 19.6466 23.2387 17.8267C23.9925 16.0069 25.4253 14.674 27.1219 13.9999C25.4253 13.3259 23.9925 11.9929 23.2387 10.1731C22.4849 8.35322 22.5555 6.39759 23.2786 4.72129C21.6023 5.44433 19.6466 5.51492 17.8268 4.76112C16.0069 4.00731 14.674 2.57453 13.9999 0.87793C13.3259 2.57452 11.9929 4.00729 10.1731 4.7611C8.35325 5.5149 6.39761 5.44431 4.7213 4.72127C5.44436 6.39757 5.51495 8.35322 4.76115 10.1731ZM14 21.9999C18.4183 21.9999 22 18.4182 22 13.9999C22 9.58166 18.4183 5.99994 14 5.99994C9.58172 5.99994 6 9.58166 6 13.9999C6 18.4182 9.58172 21.9999 14 21.9999Z" fill="#3D4337"/>
<circle cx="14" cy="14" r="6" fill="#3D4337"/>
</svg>
